<?xml version="1.0" standalone="no"?>
<!DOCTYPE svg PUBLIC "-//W3C//DTD SVG 20010904//EN"
 "http://www.w3.org/TR/2001/REC-SVG-20010904/DTD/svg10.dtd">
<svg version="1.0" xmlns="http://www.w3.org/2000/svg"
 width="500.000000pt" height="500.000000pt" viewBox="0 0 500.000000 500.000000"
 preserveAspectRatio="xMidYMid meet">

<g transform="translate(0.000000,500.000000) scale(0.100000,-0.100000)"
fill="#000000" stroke="none">
<path d="M2340 4120 c-249 -26 -491 -106 -705 -235 -354 -213 -636 -603 -729
-1006 -86 -377 -44 -760 119 -1084 205 -408 550 -717 947 -849 220 -73 339
-90 577 -83 221 7 371 37 571 117 498 198 887 661 989 1179 36 181 46 318 32
449 -23 206 -64 379 -123 512 -220 496 -555 794 -1063 945 -167 50 -433 74
-615 55z m465 -109 c331 -61 686 -262 877 -498 250 -308 370 -633 371 -1003 1
-171 -11 -274 -49 -425 -25 -100 -91 -266 -126 -317 -10 -14 -18 -29 -18 -33
0 -3 -32 -55 -72 -113 -192 -284 -494 -504 -831 -606 -187 -57 -271 -69 -462
-69 -183 1 -296 18 -465 69 -207 63 -445 207 -600 363 -95 95 -218 249 -276
346 -199 330 -255 742 -159 1163 68 295 248 579 511 803 62 53 211 146 309
193 163 79 322 124 535 150 80 10 349 -4 455 -23z"/>
<path d="M2707 3868 c-48 -17 -46 -90 5 -122 20 -12 57 5 77 36 29 46 -27 104
-82 86z"/>
<path d="M2224 3845 c-20 -31 -12 -69 20 -91 30 -19 60 -7 72 28 23 69 -54
121 -92 63z"/>
<path d="M2452 3854 c-28 -19 -29 -67 -2 -94 27 -27 42 -25 74 6 30 31 32 50
10 82 -18 26 -50 28 -82 6z"/>
<path d="M3140 3629 c-124 -34 -197 -76 -270 -155 -58 -64 -90 -126 -115 -219
-52 -203 51 -432 242 -532 79 -42 153 -57 256 -51 76 4 96 9 170 46 122 61
195 142 248 282 9 22 14 77 14 150 0 112 -1 117 -38 194 -93 198 -332 332
-507 285z m45 -108 c-3 -15 -7 -94 -8 -173 l-1 -146 -136 -5 c-148 -5 -206 -5
-214 4 -3 3 1 25 8 50 46 151 151 254 296 289 59 14 62 13 55 -19z m156 -5
c59 -26 159 -95 159 -110 0 -5 -11 1 -25 14 -26 24 -173 93 -184 86 -4 -3 -8
4 -8 15 -2 23 -6 24 58 -5z m-54 -198 c-2 -35 -3 -9 -3 57 0 66 1 94 3 63 2
-32 2 -86 0 -120z m283 -247 c1 -24 1 -25 15 -7 13 17 14 15 10 -20 -5 -57
-17 -83 -68 -144 -149 -180 -409 -199 -578 -42 -38 35 -70 76 -84 107 -24 52
-45 112 -45 126 0 8 682 18 728 10 16 -2 22 -10 22 -30z"/>
<path d="M2395 3611 l-80 -6 -5 -400 -5 -400 -32 -3 -33 -3 0 334 c0 296 -2
336 -16 341 -30 11 -219 7 -232 -6 -9 -9 -12 -98 -12 -340 l0 -328 -35 0 -35
0 0 263 c0 191 -3 266 -12 275 -8 8 -48 12 -113 12 -86 0 -104 -3 -118 -18
-15 -16 -17 -50 -17 -275 l0 -257 -28 0 -29 0 -6 179 c-4 98 -10 186 -13 195
-5 13 -24 16 -114 16 -77 0 -111 -4 -119 -13 -6 -8 -12 -81 -13 -193 l-3 -179
-53 0 c-36 0 -56 -5 -62 -15 -15 -24 -12 -48 9 -60 22 -11 1384 -15 1440 -4
42 9 59 39 35 65 -13 14 -31 19 -72 19 l-54 0 3 395 c4 344 2 397 -11 405 -16
10 -32 10 -165 1z m100 -441 l0 -360 -57 0 -58 0 0 360 0 360 58 0 57 0 0
-360z m-335 -65 l0 -295 -50 0 -50 0 0 295 0 295 50 0 50 0 0 -295z m-332 -62
l-3 -228 -42 -6 c-36 -4 -42 -2 -47 15 -3 12 -6 117 -6 234 l0 212 50 0 50 0
-2 -227z m-318 -89 l0 -155 -52 3 -53 3 -3 153 -3 152 56 0 55 0 0 -156z"/>
<path d="M1815 2520 c-506 -6 -496 -4 -535 -80 -18 -36 -20 -59 -20 -247 0
-269 14 -319 100 -363 38 -20 63 -20 1158 -20 l1119 0 33 22 c74 51 73 49 72
325 0 136 -1 256 -1 266 -1 9 -16 33 -34 53 -29 31 -40 36 -103 44 -73 9 -962
9 -1789 0z m385 -118 c0 -26 -3 -57 -6 -69 l-6 -23 -424 0 -424 0 0 44 c0 28
7 52 20 69 l21 26 409 1 410 0 0 -48z m740 -22 l0 -70 -335 0 -335 0 0 70 0
70 335 0 335 0 0 -70z m714 48 c9 -13 16 -43 16 -70 l0 -48 -325 0 -325 0 0
70 0 70 309 0 c309 0 310 0 325 -22z m-1458 -212 c1 0 -1 -27 -3 -58 l-5 -58
-418 0 -417 0 -7 31 c-8 42 -8 84 2 93 5 6 843 -2 848 -8z m744 -51 l0 -65
-335 0 -335 0 0 65 0 65 335 0 335 0 0 -65z m728 -2 l3 -63 -326 0 -325 0 0
65 0 65 323 -2 322 -3 3 -62z m-1478 -206 l0 -64 -401 3 c-455 2 -439 -1 -439
81 l0 43 420 0 420 0 0 -63z m751 59 c2 -2 2 -32 1 -65 l-4 -61 -331 2 -332 3
-3 63 -3 62 334 0 c183 0 336 -2 338 -4z m723 -12 c8 -22 -3 -81 -18 -92 -14
-12 -623 -25 -630 -14 -3 5 -2 34 1 65 l6 57 317 0 c285 0 319 -2 324 -16z"/>
<path d="M1622 1658 c-23 -23 -12 -46 50 -102 l63 -56 -63 -63 c-34 -34 -62
-67 -62 -73 0 -6 9 -19 20 -29 23 -21 26 -19 103 59 l48 49 37 -34 c20 -19 43
-41 52 -49 41 -40 48 -42 69 -21 12 12 21 25 21 31 0 5 -28 37 -62 70 l-63 60
63 61 c64 64 71 76 50 97 -22 22 -42 13 -103 -48 l-61 -60 -59 60 c-60 60 -81
70 -103 48z"/>
<path d="M2093 1663 c-28 -11 -11 -49 49 -110 l62 -63 -62 -56 c-62 -55 -73
-79 -50 -102 21 -21 36 -14 97 44 33 31 62 56 66 55 3 0 33 -24 66 -53 70 -62
75 -64 94 -48 27 22 16 46 -45 104 -33 32 -60 59 -60 61 0 2 27 30 60 61 48
46 60 63 58 83 -2 17 -10 27 -23 29 -20 3 -35 -7 -112 -81 l-42 -40 -58 61
c-54 58 -70 68 -100 55z"/>
<path d="M2665 1656 c-42 -18 -93 -79 -101 -121 -12 -68 4 -123 50 -170 47
-46 88 -60 154 -49 75 12 151 101 152 178 0 16 -10 50 -21 74 -41 85 -149 125
-234 88z m132 -89 c93 -84 -13 -226 -116 -155 -46 30 -57 71 -34 122 28 63
100 79 150 33z"/>
<path d="M3148 1650 c-20 -11 -49 -36 -64 -56 -38 -50 -41 -144 -5 -195 38
-55 82 -79 146 -79 91 0 150 45 174 132 22 77 -18 166 -90 203 -39 21 -117 18
-161 -5z m150 -85 c16 -19 22 -39 22 -74 0 -73 -51 -110 -125 -90 -76 21 -87
138 -17 182 37 24 90 15 120 -18z"/>
</g>
</svg>
